<?xml version="1.0" standalone="no"?>
<!DOCTYPE svg PUBLIC "-//W3C//DTD SVG 20010904//EN"
 "http://www.w3.org/TR/2001/REC-SVG-20010904/DTD/svg10.dtd">
<svg version="1.0" xmlns="http://www.w3.org/2000/svg"
 width="1440.000000pt" height="1440.000000pt" viewBox="0 0 1440.000000 1440.000000"
 preserveAspectRatio="xMidYMid meet">
<metadata>
Created by potrace 1.14, written by Peter Selinger 2001-2017
</metadata>
<g transform="translate(0.000000,1440.000000) scale(0.100000,-0.100000)"
fill="#000000" stroke="none">
<path d="M7831 11009 c-394 -74 -686 -441 -685 -859 0 -159 45 -267 153 -367
56 -52 166 -107 246 -124 95 -20 286 -15 378 10 79 21 202 75 246 108 218 165
330 338 371 571 14 82 11 226 -6 294 -48 183 -190 317 -383 362 -67 16 -248
18 -320 5z"/>
<path d="M3768 9895 c-2 -1 -39 -6 -83 -9 -146 -13 -345 -65 -456 -121 -120
-61 -239 -158 -305 -250 -16 -22 -32 -42 -35 -45 -12 -10 -66 -117 -96 -190
-110 -265 -133 -630 -59 -918 110 -422 427 -835 808 -1053 79 -45 110 -78 76
-79 -205 -8 -414 -62 -587 -152 -206 -108 -339 -248 -430 -456 -36 -81 -77
-219 -85 -287 -4 -28 -11 -77 -16 -110 -9 -63 -6 -434 4 -495 3 -19 8 -51 11
-70 46 -325 184 -645 385 -890 114 -139 336 -341 484 -439 171 -113 337 -203
501 -271 44 -18 89 -36 100 -41 23 -10 175 -60 190 -63 6 -1 36 -10 68 -20 70
-20 255 -62 317 -71 24 -4 47 -8 50 -10 3 -1 39 -6 80 -10 41 -4 84 -9 95 -11
36 -7 318 -7 385 0 418 44 714 213 845 481 78 160 97 364 47 495 -29 73 -103
164 -177 217 -110 77 -294 119 -403 91 -53 -13 -128 -71 -151 -117 -20 -38
-25 -64 -36 -193 -8 -85 -38 -194 -72 -261 -104 -208 -302 -308 -577 -294 -61
3 -124 8 -141 12 -16 3 -58 12 -95 20 -82 17 -227 68 -303 106 -57 29 -161 93
-184 113 -7 6 -38 33 -70 61 -240 206 -423 570 -467 928 -3 26 -9 68 -12 95
-8 59 -9 335 -1 382 3 19 9 62 13 95 10 94 61 252 110 345 67 126 124 195 244
294 34 28 158 92 215 111 110 37 324 52 435 30 14 -2 39 -7 55 -11 37 -8 704
-172 726 -179 14 -5 16 6 18 67 1 40 4 128 6 195 4 109 3 122 -13 127 -9 3
-165 41 -347 86 -372 91 -426 107 -542 161 -248 114 -465 340 -597 619 -33 70
-93 239 -102 285 -2 11 -6 31 -10 45 -3 14 -7 39 -10 55 -3 17 -7 36 -10 44
-18 54 -27 364 -12 461 55 372 228 592 512 650 90 18 250 17 351 -4 351 -73
617 -226 767 -443 70 -103 131 -253 153 -383 3 -19 9 -98 12 -175 6 -163 21
-214 88 -303 88 -117 230 -187 389 -191 81 -2 177 26 218 64 91 84 124 249 88
445 -94 517 -652 1029 -1395 1279 -114 38 -325 96 -390 106 -16 3 -50 9 -75
15 -86 18 -228 31 -363 34 -75 2 -138 2 -139 1z"/>
<path d="M10090 9709 c-47 -4 -103 -11 -125 -14 -22 -3 -53 -8 -70 -10 -80
-11 -118 -19 -210 -42 -55 -13 -109 -26 -120 -28 -56 -9 -306 -104 -420 -160
-115 -56 -294 -164 -330 -198 -7 -6 -35 -31 -62 -54 -131 -111 -236 -242 -302
-376 -170 -348 -68 -592 252 -602 151 -5 258 32 359 124 66 61 100 121 128
230 77 302 230 510 475 641 168 90 357 129 599 125 89 -1 177 -6 196 -9 227
-45 371 -132 467 -282 102 -159 131 -383 83 -639 -5 -27 -11 -62 -14 -76 -8
-49 -68 -214 -110 -305 -116 -245 -243 -410 -446 -578 -55 -45 -198 -131 -269
-162 -43 -18 -125 -46 -182 -60 -104 -27 -106 -27 -544 -31 -242 -3 -442 -6
-444 -8 -3 -3 -51 -224 -64 -295 -3 -14 -8 -37 -12 -52 l-7 -28 398 -1 c220 0
422 -3 449 -5 69 -7 219 -47 289 -78 290 -128 469 -414 480 -768 3 -79 -19
-289 -37 -364 -31 -126 -45 -173 -74 -259 -169 -488 -517 -847 -936 -964 -73
-21 -91 -24 -207 -40 -85 -11 -264 -7 -364 9 -337 52 -540 252 -550 542 -2 46
1 110 5 143 28 209 23 246 -43 315 -65 67 -159 98 -289 94 -143 -4 -263 -52
-357 -144 -99 -96 -143 -216 -143 -390 -1 -305 170 -554 501 -734 107 -58 300
-129 408 -151 9 -2 46 -10 82 -18 36 -8 90 -18 120 -22 30 -4 64 -9 75 -10
129 -23 615 -23 733 0 10 2 43 6 72 10 51 7 66 9 120 20 37 7 81 15 115 22
148 26 441 134 615 225 217 114 356 213 501 358 231 230 392 520 490 880 7 25
14 50 15 55 12 46 45 226 50 277 14 152 5 301 -26 425 -21 80 -22 84 -60 168
-104 233 -394 469 -695 566 -38 12 -73 25 -77 28 -17 14 13 30 107 56 54 16
111 34 125 42 14 7 29 13 33 13 9 0 179 83 212 103 254 156 456 348 600 570
96 148 166 316 199 477 8 41 18 89 22 105 3 17 8 109 10 205 3 154 0 188 -21
285 -24 113 -67 227 -113 299 -30 48 -114 149 -157 188 -103 97 -397 250 -542
283 -10 2 -54 13 -98 24 -163 41 -272 52 -530 56 -137 1 -288 -1 -335 -6z"/>
<path d="M7720 8640 c-135 -43 -306 -97 -380 -120 -74 -23 -175 -56 -225 -72
-49 -17 -94 -31 -100 -32 -5 -1 -77 -23 -160 -50 -82 -26 -229 -72 -325 -102
-274 -86 -261 -80 -256 -117 3 -18 8 -52 10 -77 3 -25 8 -73 12 -108 4 -34 9
-64 13 -66 3 -2 56 12 116 31 136 43 198 50 263 29 86 -29 129 -101 120 -202
-3 -27 -41 -224 -86 -439 -44 -214 -83 -401 -86 -415 -2 -14 -21 -104 -41
-200 -20 -96 -42 -206 -50 -245 -21 -107 -29 -148 -55 -270 -11 -49 -21 -101
-24 -115 -5 -24 -53 -264 -62 -305 -14 -69 -54 -264 -58 -285 -5 -23 -76 -372
-156 -755 -17 -82 -48 -238 -70 -345 -21 -107 -41 -207 -44 -222 -3 -16 -8
-40 -11 -55 -3 -16 -12 -60 -20 -100 -39 -191 2 -347 118 -453 69 -63 251
-140 392 -165 64 -11 364 -14 440 -4 101 13 154 22 235 40 25 6 56 13 70 15
144 27 521 199 555 254 7 12 46 223 41 227 -1 1 -56 -11 -122 -27 -248 -61
-334 -68 -403 -32 -48 25 -71 59 -79 118 -7 46 2 144 22 239 4 19 73 359 82
400 23 115 38 191 57 280 9 39 18 84 20 100 5 29 51 253 122 595 19 91 36 176
39 190 2 14 16 81 30 150 14 69 28 136 30 150 3 14 16 81 31 150 14 69 28 137
30 152 3 16 12 58 21 95 9 38 17 80 19 94 2 15 15 80 29 145 14 66 27 130 30
144 2 14 23 117 46 230 23 113 44 214 46 224 2 11 12 63 23 115 50 241 120
589 125 614 3 15 7 35 10 45 3 9 7 35 11 57 3 22 10 56 15 75 5 19 11 46 13
60 3 14 23 116 46 227 23 110 41 204 41 207 0 3 -60 6 -132 5 l-133 0 -245
-79z"/>
</g>
</svg>
